<svg xmlns="http://www.w3.org/2000/svg" xmlns:xlink="http://www.w3.org/1999/xlink" width="500" zoomAndPan="magnify" viewBox="0 0 375 374.999991" height="500" preserveAspectRatio="xMidYMid meet" version="1.0"><defs><g/></defs><g fill="#5573ff" fill-opacity="1"><g transform="translate(42.037473, 190.452593)"><g><path d="M 17.828125 0.578125 C 15.046875 0.578125 12.566406 0.234375 10.390625 -0.453125 C 8.210938 -1.140625 6.398438 -2.039062 4.953125 -3.15625 C 3.503906 -4.28125 2.394531 -5.515625 1.625 -6.859375 L 6 -12.1875 L 6.6875 -12.1875 C 7.894531 -10.394531 9.429688 -8.960938 11.296875 -7.890625 C 13.160156 -6.828125 15.335938 -6.296875 17.828125 -6.296875 C 19.960938 -6.296875 21.566406 -6.742188 22.640625 -7.640625 C 23.722656 -8.546875 24.265625 -9.785156 24.265625 -11.359375 C 24.265625 -12.316406 24.085938 -13.113281 23.734375 -13.75 C 23.390625 -14.394531 22.8125 -14.945312 22 -15.40625 C 21.195312 -15.863281 20.109375 -16.257812 18.734375 -16.59375 L 13.5625 -17.78125 C 9.945312 -18.601562 7.253906 -19.972656 5.484375 -21.890625 C 3.710938 -23.804688 2.828125 -26.296875 2.828125 -29.359375 C 2.828125 -31.640625 3.394531 -33.640625 4.53125 -35.359375 C 5.675781 -37.085938 7.332031 -38.425781 9.5 -39.375 C 11.675781 -40.332031 14.28125 -40.8125 17.3125 -40.8125 C 20.40625 -40.8125 23.054688 -40.398438 25.265625 -39.578125 C 27.484375 -38.765625 29.351562 -37.515625 30.875 -35.828125 L 26.9375 -30.4375 L 26.25 -30.4375 C 25.113281 -31.625 23.8125 -32.515625 22.34375 -33.109375 C 20.875 -33.710938 19.195312 -34.015625 17.3125 -34.015625 C 15.125 -34.015625 13.460938 -33.628906 12.328125 -32.859375 C 11.191406 -32.085938 10.625 -31.023438 10.625 -29.671875 C 10.625 -28.398438 11.019531 -27.390625 11.8125 -26.640625 C 12.613281 -25.890625 14 -25.300781 15.96875 -24.875 L 21.25 -23.78125 C 25.15625 -22.945312 27.988281 -21.546875 29.75 -19.578125 C 31.507812 -17.609375 32.390625 -15.035156 32.390625 -11.859375 C 32.390625 -9.347656 31.847656 -7.160156 30.765625 -5.296875 C 29.679688 -3.429688 28.046875 -1.984375 25.859375 -0.953125 C 23.679688 0.0664062 21.003906 0.578125 17.828125 0.578125 Z M 17.828125 0.578125 "/></g></g></g><g fill="#5573ff" fill-opacity="1"><g transform="translate(76.59097, 190.452593)"><g><path d="M 19.703125 -40.234375 C 26.234375 -40.234375 31.21875 -38.546875 34.65625 -35.171875 C 38.101562 -31.796875 39.828125 -26.773438 39.828125 -20.109375 C 39.828125 -13.472656 38.101562 -8.460938 34.65625 -5.078125 C 31.21875 -1.691406 26.234375 0 19.703125 0 L 5.234375 0 L 5.234375 -40.234375 Z M 19.234375 -6.6875 C 23.378906 -6.6875 26.476562 -7.742188 28.53125 -9.859375 C 30.59375 -11.984375 31.625 -15.398438 31.625 -20.109375 C 31.625 -24.828125 30.59375 -28.242188 28.53125 -30.359375 C 26.476562 -32.484375 23.378906 -33.546875 19.234375 -33.546875 L 13.1875 -33.546875 L 13.1875 -6.6875 Z M 19.234375 -6.6875 "/></g></g></g><g fill="#5573ff" fill-opacity="1"><g transform="translate(119.590279, 190.452593)"><g><path d="M 13.1875 0 L 5.234375 0 L 5.234375 -40.234375 L 13.1875 -40.234375 Z M 13.1875 0 "/></g></g></g><g fill="#5573ff" fill-opacity="1"><g transform="translate(138.022479, 190.452593)"><g><path d="M 13.1875 -17.671875 L 13.1875 -6.65625 L 32.390625 -6.65625 L 32.390625 0 L 5.234375 0 L 5.234375 -40.234375 L 31.953125 -40.234375 L 31.953125 -33.578125 L 13.1875 -33.578125 L 13.1875 -24.15625 L 29.578125 -24.15625 L 29.578125 -17.671875 Z M 13.1875 -17.671875 "/></g></g></g><g fill="#5573ff" fill-opacity="1"><g transform="translate(172.6035, 190.452593)"><g><path d="M 32.25 -40.234375 L 32.25 -33.546875 L 20.640625 -33.546875 L 20.640625 0 L 12.71875 0 L 12.71875 -33.546875 L 1.09375 -33.546875 L 1.09375 -40.234375 Z M 32.25 -40.234375 "/></g></g></g><g fill="#ff9148" fill-opacity="1"><g transform="translate(205.949839, 190.452593)"><g><path d="M 8.828125 0 L 0.6875 0 L 12.609375 -20.6875 L 1.265625 -40.234375 L 9.71875 -40.234375 L 18.046875 -25.8125 L 18.734375 -25.8125 L 27.21875 -40.234375 L 35.25 -40.234375 L 23.921875 -20.6875 L 35.828125 0 L 27.40625 0 L 18.46875 -15.515625 L 17.78125 -15.515625 Z M 8.828125 0 "/></g></g></g><g fill="#ff9148" fill-opacity="1"><g transform="translate(242.456611, 190.452593)"><g><path d="M 11.828125 0.578125 C 9.890625 0.578125 8.203125 0.222656 6.765625 -0.484375 C 5.335938 -1.203125 4.238281 -2.253906 3.46875 -3.640625 C 2.695312 -5.023438 2.3125 -6.691406 2.3125 -8.640625 C 2.3125 -10.441406 2.695312 -11.953125 3.46875 -13.171875 C 4.238281 -14.390625 5.429688 -15.390625 7.046875 -16.171875 C 8.660156 -16.953125 10.769531 -17.550781 13.375 -17.96875 C 15.1875 -18.257812 16.566406 -18.578125 17.515625 -18.921875 C 18.460938 -19.273438 19.097656 -19.671875 19.421875 -20.109375 C 19.753906 -20.554688 19.921875 -21.117188 19.921875 -21.796875 C 19.921875 -22.765625 19.582031 -23.503906 18.90625 -24.015625 C 18.226562 -24.535156 17.097656 -24.796875 15.515625 -24.796875 C 13.828125 -24.796875 12.222656 -24.414062 10.703125 -23.65625 C 9.179688 -22.90625 7.863281 -21.914062 6.75 -20.6875 L 6.1875 -20.6875 L 3 -25.515625 C 4.539062 -27.210938 6.421875 -28.539062 8.640625 -29.5 C 10.859375 -30.457031 13.28125 -30.9375 15.90625 -30.9375 C 19.925781 -30.9375 22.832031 -30.082031 24.625 -28.375 C 26.425781 -26.664062 27.328125 -24.242188 27.328125 -21.109375 L 27.328125 -7.921875 C 27.328125 -6.566406 27.921875 -5.890625 29.109375 -5.890625 C 29.566406 -5.890625 30.019531 -5.972656 30.46875 -6.140625 L 30.84375 -6.03125 L 31.40625 -0.71875 C 30.976562 -0.4375 30.390625 -0.207031 29.640625 -0.03125 C 28.890625 0.132812 28.0625 0.21875 27.15625 0.21875 C 25.34375 0.21875 23.925781 -0.128906 22.90625 -0.828125 C 21.882812 -1.523438 21.15625 -2.613281 20.71875 -4.09375 L 20.140625 -4.15625 C 18.660156 -1 15.890625 0.578125 11.828125 0.578125 Z M 14.25 -5.125 C 16.007812 -5.125 17.414062 -5.710938 18.46875 -6.890625 C 19.53125 -8.078125 20.0625 -9.722656 20.0625 -11.828125 L 20.0625 -14.921875 L 19.53125 -15.03125 C 19.070312 -14.65625 18.472656 -14.34375 17.734375 -14.09375 C 16.992188 -13.851562 15.925781 -13.613281 14.53125 -13.375 C 12.875 -13.101562 11.679688 -12.628906 10.953125 -11.953125 C 10.234375 -11.285156 9.875 -10.335938 9.875 -9.109375 C 9.875 -7.804688 10.257812 -6.816406 11.03125 -6.140625 C 11.800781 -5.460938 12.875 -5.125 14.25 -5.125 Z M 14.25 -5.125 "/></g></g></g><g fill="#ff9148" fill-opacity="1"><g transform="translate(274.451621, 190.452593)"><g><path d="M 4.375 0 L 4.375 -30.359375 L 11.703125 -30.359375 L 11.703125 -26.28125 L 12.28125 -26.171875 C 13.269531 -27.804688 14.425781 -29.007812 15.75 -29.78125 C 17.082031 -30.550781 18.785156 -30.9375 20.859375 -30.9375 C 23.148438 -30.9375 24.992188 -30.476562 26.390625 -29.5625 C 27.785156 -28.65625 28.804688 -27.332031 29.453125 -25.59375 L 30.03125 -25.59375 C 30.957031 -27.40625 32.160156 -28.75 33.640625 -29.625 C 35.117188 -30.5 36.957031 -30.9375 39.15625 -30.9375 C 45.445312 -30.9375 48.59375 -27.429688 48.59375 -20.421875 L 48.59375 0 L 40.96875 0 L 40.96875 -19.453125 C 40.96875 -21.234375 40.617188 -22.515625 39.921875 -23.296875 C 39.234375 -24.085938 38.117188 -24.484375 36.578125 -24.484375 C 32.390625 -24.484375 30.296875 -21.6875 30.296875 -16.09375 L 30.296875 0 L 22.671875 0 L 22.671875 -19.453125 C 22.671875 -21.234375 22.316406 -22.515625 21.609375 -23.296875 C 20.910156 -24.085938 19.789062 -24.484375 18.25 -24.484375 C 16.28125 -24.484375 14.742188 -23.828125 13.640625 -22.515625 C 12.546875 -21.210938 12 -19.128906 12 -16.265625 L 12 0 Z M 4.375 0 "/></g></g></g></svg>